<?xml version="1.0" encoding="utf-8"?>
<!-- Generator: Adobe Illustrator 24.0.1, SVG Export Plug-In . SVG Version: 6.00 Build 0)  -->
<svg version="1.1" id="Capa_1" xmlns="http://www.w3.org/2000/svg" xmlns:xlink="http://www.w3.org/1999/xlink" x="0px" y="0px"
	 viewBox="0 0 512 512" style="enable-background:new 0 0 512 512;" xml:space="preserve">
<style type="text/css">
	.st0{fill:#FFFFFF;}
</style>
<g>
	<g>
		<g>
			<path class="st0" d="M435.1,129.4c-6.8-6.8-17.5-7.8-25.4-2.4c-29.9,20.4-180,123-196.2,139.1c-23.4,23.4-23.4,61.5,0,84.9
				c11.7,11.7,27.1,17.5,42.4,17.5c15.4,0,30.7-5.8,42.4-17.5c16.1-16.1,118.7-166.2,139.1-196.2
				C442.9,146.8,441.9,136.2,435.1,129.4z M270.1,322.6c-7.8,7.8-20.5,7.8-28.3,0c-7.8-7.8-7.8-20.5,0-28.3
				c6.3-6.2,48.9-36.6,101.3-73C306.7,273.8,276.3,316.4,270.1,322.6z"/>
			<path class="st0" d="M92.2,401.5l-24.7,12C49.5,381.3,40,345.3,40,308.5c0-27,5-52.8,14.1-76.7l28.3,13.6c2.8,1.3,5.7,2,8.6,2
				c7.5,0,14.6-4.2,18-11.4c4.8-10,0.6-21.9-9.4-26.7l-27.9-13.4c34.7-56.6,94.8-96.1,164.3-102.5v30.1c0,11,9,20,20,20
				c11,0,20-9,20-20V93.4c23.8,2.2,46.9,8.2,68.8,18.1c10.1,4.5,21.9,0.1,26.5-10c4.5-10.1,0.1-21.9-10-26.5
				c-33.2-15-68.6-22.6-105.2-22.6c-68.4,0-132.7,26.6-181,75c-48.4,48.4-75,112.6-75,181c0,50.5,15,99.7,43.4,142.1
				c3.8,5.7,10.1,8.9,16.6,8.9c3,0,5.9-0.7,8.8-2l41-20c9.9-4.8,14.1-16.8,9.2-26.7C114.1,400.8,102.2,396.7,92.2,401.5z"/>
			<path class="st0" d="M489.4,203.3c-4.5-10.1-16.4-14.5-26.5-10c-10.1,4.5-14.5,16.4-10,26.5c12.6,28,19,57.8,19,88.8
				c0,36.9-9.5,72.9-27.6,105.2l-25.8-12.3c-10-4.7-21.9-0.5-26.7,9.5c-4.7,10-0.5,21.9,9.5,26.7l42,20c2.8,1.3,5.7,1.9,8.6,1.9
				c6.5,0,12.8-3.2,16.6-8.9C497,408.2,512,359,512,308.5C512,271.8,504.4,236.4,489.4,203.3z"/>
		</g>
	</g>
</g>
</svg>
