<svg id="Capa_1" enable-background="new 0 0 512 512" height="512" viewBox="0 0 512 512" width="512" xmlns="http://www.w3.org/2000/svg"><g><path d="m497 78.5h-392c-8.284 0-15 6.716-15 15v154h-63s-27 36.25-27 81c0 33.084 26.916 60 60 60h437c8.284 0 15-6.716 15-15v-280c0-8.284-6.716-15-15-15z" fill="#ecf9fd"/><path d="m90 247.5h-63s-27 36.25-27 81c0 33.084 26.916 60 60 60h437c8.284 0 15-6.716 15-15v-140h-422z" fill="#d9f3fc"/><path d="m90 233.5v14h-90v81c0 33.084 26.916 60 60 60h437c8.284 0 15-6.716 15-15v-140z" fill="#d9f3fc"/><path d="m59.87 268.76h60.13v-235.26c0-8.284-6.716-15-15-15h-45c-33.084 0-60 26.916-60 60v250c0 .015.002.029.002.043.047-33.025 26.831-59.783 59.868-59.783z" fill="#8dc2eb"/><path d="m0 233.5v95c0 .015.002.029.002.043.047-33.025 26.831-59.783 59.868-59.783h60.13v-35.26z" fill="#5e9ff6"/><path d="m437 283.5h-30c-8.271 0-15-6.729-15-15 0-3.325 1.068-6.476 3.09-9.11.077-.1.153-.201.227-.303 7.473-10.267 11.423-22.413 11.423-35.126 0-32.941-26.799-59.74-59.74-59.74s-59.74 26.799-59.74 59.74c0 12.718 3.953 24.868 11.432 35.137.072.1.146.198.221.296 2.02 2.634 3.087 5.784 3.087 9.107 0 8.271-6.729 15-15 15h-30c-8.284 0-15 6.716-15 15v30c0 8.271-6.729 15-15 15-3.326 0-6.476-1.069-9.111-3.09-.1-.077-.201-.152-.303-.227-10.267-7.473-22.413-11.423-35.126-11.423-32.941 0-59.74 26.799-59.74 59.74s26.799 59.74 59.74 59.74c12.718 0 24.869-3.953 35.137-11.432.099-.072.198-.146.295-.22 2.635-2.02 5.784-3.087 9.108-3.087 8.271 0 15 6.729 15 15v30c0 8.284 6.716 15 15 15h180c8.284 0 15-6.716 15-15v-180c0-8.286-6.716-15.002-15-15.002z" fill="#00dd80"/><path d="m182.46 448.24c12.718 0 24.869-3.953 35.137-11.432.099-.072.198-.146.295-.22 2.635-2.02 5.784-3.087 9.108-3.087 8.271 0 15 6.729 15 15v30c0 8.284 6.716 15 15 15h180c8.284 0 15-6.716 15-15v-90h-329.28c0 32.94 26.799 59.739 59.74 59.739z" fill="#00aa95"/></g></svg>