<?xml version="1.0" encoding="utf-8"?>
<!-- Generator: Adobe Illustrator 24.0.1, SVG Export Plug-In . SVG Version: 6.00 Build 0)  -->
<svg version="1.1" id="Capa_1" xmlns="http://www.w3.org/2000/svg" xmlns:xlink="http://www.w3.org/1999/xlink" x="0px" y="0px"
	 viewBox="0 0 512 512" style="enable-background:new 0 0 512 512;" xml:space="preserve">
<style type="text/css">
	.st0{fill:#FFFFFF;}
</style>
<g>
	<path class="st0" d="M436.8,75.2C388.3,26.7,324.1,0,256,0S123.7,26.7,75.2,75.2C26.7,123.7,0,187.9,0,256s26.7,132.3,75.2,180.8
		C123.7,485.3,187.9,512,256,512s132.3-26.7,180.8-75.2C485.3,388.3,512,324.1,512,256S485.3,123.7,436.8,75.2z M256,482
		C131.4,482,30,380.6,30,256S131.4,30,256,30s226,101.4,226,226S380.6,482,256,482z"/>
	<path class="st0" d="M121.5,160.5c10.7-15.1,23.8-28.2,38.9-38.9l12.2-8.7l-17.4-24.4l-12.2,8.7c-17.8,12.7-33.3,28.1-45.9,45.9
		l-8.7,12.2l24.4,17.4L121.5,160.5z"/>
	<path class="st0" d="M228.5,93.3c18.1-3,37-3,55,0l14.8,2.5l5-29.6l-14.8-2.5c-21.3-3.6-43.6-3.6-65,0l-14.8,2.5l5,29.6L228.5,93.3
		z"/>
	<path class="st0" d="M390.5,160.5l8.7,12.2l24.4-17.4l-8.7-12.2c-12.7-17.8-28.1-33.3-45.9-45.9l-12.2-8.7l-17.4,24.4l12.2,8.7
		C366.6,132.3,379.7,145.4,390.5,160.5z"/>
	<path class="st0" d="M448.3,223.5l-2.5-14.8l-29.6,5l2.5,14.8c1.5,9,2.3,18.3,2.3,27.5c0,9.2-0.8,18.5-2.3,27.5l-2.5,14.8l29.6,5
		l2.5-14.8c1.8-10.7,2.7-21.6,2.7-32.5S450.1,234.2,448.3,223.5L448.3,223.5z"/>
	<path class="st0" d="M390.5,351.5c-10.7,15.1-23.8,28.2-38.9,38.9l-12.2,8.7l17.4,24.4l12.2-8.7c17.8-12.7,33.3-28.1,45.9-45.9
		l8.7-12.2l-24.4-17.4L390.5,351.5z"/>
	<path class="st0" d="M283.5,418.7c-18.1,3-37,3-55,0l-14.8-2.5l-5,29.6l14.8,2.5c10.7,1.8,21.6,2.7,32.5,2.7s21.8-0.9,32.5-2.7
		l14.8-2.5l-5-29.6L283.5,418.7z"/>
	<path class="st0" d="M121.5,351.5l-8.7-12.2l-24.4,17.4l8.7,12.2c12.7,17.8,28.1,33.3,45.9,45.9l12.2,8.7l17.4-24.4l-12.2-8.7
		C145.4,379.7,132.3,366.6,121.5,351.5z"/>
	<path class="st0" d="M93.3,283.5c-1.5-9-2.3-18.3-2.3-27.5s0.8-18.5,2.3-27.5l2.5-14.8l-29.6-5l-2.5,14.8
		C61.9,234.2,61,245.1,61,256s0.9,21.8,2.7,32.5l2.5,14.8l29.6-5L93.3,283.5z"/>
	<path class="st0" d="M291.6,203L256,96.1L220.4,203H105.6l92,68.3l-38.4,115.1l96.8-71.8l96.8,71.8l-38.4-115.1l92-68.3L291.6,203z
		 M256,190.9l4,12.1h-8L256,190.9z M207.6,241.3l-11.2-8.3h14L207.6,241.3z M217.8,305.6l5.2-15.5l7.9,5.8L217.8,305.6z M256,277.2
		l-23.1-17.1l9-27.1h28l9,27.1L256,277.2z M281.2,295.9l7.9-5.8l5.2,15.5L281.2,295.9z M304.4,241.3l-2.8-8.3h14L304.4,241.3z"/>
</g>
</svg>
