<?xml version="1.0" encoding="utf-8"?>
<!-- Generator: Adobe Illustrator 24.0.1, SVG Export Plug-In . SVG Version: 6.00 Build 0)  -->
<svg version="1.1" id="Layer_1" xmlns="http://www.w3.org/2000/svg" xmlns:xlink="http://www.w3.org/1999/xlink" x="0px" y="0px"
	 viewBox="0 0 512 512" style="enable-background:new 0 0 512 512;" xml:space="preserve">
<style type="text/css">
	.st0{fill:#FCFCFC;}
</style>
<path class="st0" d="M0,165.3h113.3V52H0V165.3z M30,82h53.3v53.3H30V82z"/>
<path class="st0" d="M149.3,52v113.3H512V52H149.3z M482,135.3H179.3V82H482V135.3z"/>
<path class="st0" d="M0,312.3h113.3V199H0V312.3z M30,229h53.3v53.3H30V229z"/>
<path class="st0" d="M149.3,312.3H512V199H149.3V312.3z M179.3,229H482v53.3H179.3V229z"/>
<path class="st0" d="M0,459.3h113.3V346H0V459.3z M30,376h53.3v53.3H30V376z"/>
<path class="st0" d="M149.3,459.3H512V346H149.3V459.3z M179.3,376H482v53.3H179.3V376z"/>
</svg>
