<?xml version="1.0" encoding="utf-8"?>
<!-- Generator: Adobe Illustrator 24.0.1, SVG Export Plug-In . SVG Version: 6.00 Build 0)  -->
<svg version="1.1" id="Capa_1" xmlns="http://www.w3.org/2000/svg" xmlns:xlink="http://www.w3.org/1999/xlink" x="0px" y="0px"
	 viewBox="0 0 512 512" style="enable-background:new 0 0 512 512;" xml:space="preserve">
<style type="text/css">
	.st0{fill:#FCFCFC;}
</style>
<g>
	<path class="st0" d="M15,90c8.3,0,15-6.7,15-15V30h45c8.3,0,15-6.7,15-15S83.3,0,75,0H15C6.7,0,0,6.7,0,15v60C0,83.3,6.7,90,15,90z
		"/>
	<path class="st0" d="M75,482H30v-45c0-8.3-6.7-15-15-15s-15,6.7-15,15v60c0,8.3,6.7,15,15,15h60c8.3,0,15-6.7,15-15
		S83.3,482,75,482z"/>
	<path class="st0" d="M497,422c-8.3,0-15,6.7-15,15v45h-45c-8.3,0-15,6.7-15,15s6.7,15,15,15h60c8.3,0,15-6.7,15-15v-60
		C512,428.7,505.3,422,497,422z"/>
	<path class="st0" d="M497,0h-60c-8.3,0-15,6.7-15,15s6.7,15,15,15h45v45c0,8.3,6.7,15,15,15s15-6.7,15-15V15C512,6.7,505.3,0,497,0
		z"/>
	<path class="st0" d="M431,211V106c0-8.3-6.7-15-15-15H96c-8.3,0-15,6.7-15,15v105c0,8.3,6.7,15,15,15s15-6.7,15-15v-15
		c0-8.3,6.7-15,15-15h85V391h-15c-8.3,0-15,6.7-15,15s6.7,15,15,15h120c8.3,0,15-6.7,15-15s-6.7-15-15-15h-15V181h85
		c8.3,0,15,6.7,15,15v15c0,8.3,6.7,15,15,15S431,219.2,431,211L431,211z M386,151H286c-8.3,0-15,6.7-15,15V391h-30V166
		c0-8.3-6.7-15-15-15H126c-5.3,0-10.3,0.9-15,2.6V121h290v32.6C396.3,151.9,391.3,151,386,151L386,151z"/>
</g>
</svg>
